<?xml version="1.0" encoding="UTF-8"?>
<svg width="10px" height="13px" viewBox="0 0 10 13" version="1.1" xmlns="http://www.w3.org/2000/svg" xmlns:xlink="http://www.w3.org/1999/xlink">
    <!-- Generator: Sketch 40.3 (33839) - http://www.bohemiancoding.com/sketch -->
    <title>Group 4</title>
    <desc>Created with Sketch.</desc>
    <defs></defs>
    <g id="Page-1" stroke="none" stroke-width="1" fill="none" fill-rule="evenodd">
        <g id="Artboard-Copy-5" transform="translate(-559.000000, -72.000000)">
            <g id="Group-4" transform="translate(559.000000, 72.000000)">
                <g id="ic_insert_drive_file_48px" fill="#7F8691">
                    <path d="M1.25,0 C0.559375,0 0.00625,0.569545455 0.00625,1.27272727 L0,11.4545455 C0,12.1577273 0.553125,12.7272727 1.24375,12.7272727 L8.75,12.7272727 C9.440625,12.7272727 10,12.1577273 10,11.4545455 L10,3.81818182 L6.25,0 L1.25,0 L1.25,0 Z M5.625,4.45454545 L5.625,0.954545455 L9.0625,4.45454545 L5.625,4.45454545 L5.625,4.45454545 Z" id="Shape"></path>
                </g>
                <polygon id="X" fill="#FFFFFF" points="3.78184316 7.02172827 4.63411588 5.45454545 5.71116384 5.45454545 4.38748751 7.70854146 5.7455045 10 4.65596903 10 3.78184316 8.40784216 2.90771728 10 1.81818182 10 3.1761988 7.70854146 1.85252248 5.45454545 2.92957043 5.45454545"></polygon>
            </g>
        </g>
    </g>
</svg>