<?xml version="1.0" encoding="UTF-8"?>
<svg width="12px" height="12px" viewBox="0 0 12 12" version="1.1" xmlns="http://www.w3.org/2000/svg" xmlns:xlink="http://www.w3.org/1999/xlink">
    <!-- Generator: Sketch 40.3 (33839) - http://www.bohemiancoding.com/sketch -->
    <title>Shape</title>
    <desc>Created with Sketch.</desc>
    <defs></defs>
    <g id="Page-1" stroke="none" stroke-width="1" fill="none" fill-rule="evenodd">
        <g id="Artboard-Copy-5" transform="translate(-1237.000000, -72.000000)" fill="#7F8691">
            <path d="M1245.57633,79.5471698 L1245.03087,79.5471698 L1244.8422,79.3584906 C1245.51458,78.5797599 1245.91938,77.567753 1245.91938,76.4596913 C1245.91938,73.9965695 1243.92281,72 1241.45969,72 C1238.99657,72 1237,73.9965695 1237,76.4596913 C1237,78.922813 1238.99657,80.9193825 1241.45969,80.9193825 C1242.56775,80.9193825 1243.57976,80.5145798 1244.35849,79.8456261 L1244.54717,80.0343053 L1244.54717,80.5763293 L1247.9777,84 L1249,82.9777015 L1245.57633,79.5471698 L1245.57633,79.5471698 Z M1241.45969,79.5471698 C1239.75472,79.5471698 1238.37221,78.1646655 1238.37221,76.4596913 C1238.37221,74.754717 1239.75472,73.3722127 1241.45969,73.3722127 C1243.16467,73.3722127 1244.54717,74.754717 1244.54717,76.4596913 C1244.54717,78.1646655 1243.16467,79.5471698 1241.45969,79.5471698 L1241.45969,79.5471698 Z" id="Shape"></path>
        </g>
    </g>
</svg>