<?xml version="1.0" encoding="UTF-8"?>
<svg width="10px" height="12px" viewBox="0 0 10 12" version="1.1" xmlns="http://www.w3.org/2000/svg" xmlns:xlink="http://www.w3.org/1999/xlink">
    <!-- Generator: Sketch 40.3 (33839) - http://www.bohemiancoding.com/sketch -->
    <title>Shape Copy</title>
    <desc>Created with Sketch.</desc>
    <defs></defs>
    <g id="Page-1" stroke="none" stroke-width="1" fill="none" fill-rule="evenodd">
        <g id="Artboard-Copy-6" transform="translate(-447.000000, -72.000000)" fill="#7F8691">
            <path d="M455,79 L452,79 L452,82 L455,82 L455,79 L455,79 Z M454.222222,72 L454.222222,73.2 L449.777778,73.2 L449.777778,72 L448.666667,72 L448.666667,73.2 L448.111111,73.2 C447.497222,73.2 447.005556,73.737 447.005556,74.4 L447,82.8 C447,83.463 447.497222,84 448.111111,84 L455.888889,84 C456.502778,84 457,83.463 457,82.8 L457,74.4 C457,73.737 456.502778,73.2 455.888889,73.2 L455.333333,73.2 L455.333333,72 L454.222222,72 L454.222222,72 Z M456,83 L448,83 L448,76 L456,76 L456,83 L456,83 Z" id="Shape-Copy"></path>
        </g>
    </g>
</svg>